# xmcd
#
# Track frame offsets: 
#        150
#        33908
#        86713
#        106095
#        181448
#
# Disc length: 2753 seconds
#
# Revision: 8
# Processed by: cddbd v1.5.2PL0 Copyright (c) Steve Scherf et al.
# Submitted via: ExactAudioCopy v1.0b3
#
DISCID=340abf05
DTITLE=DEEP PURPLE - MADE IN EUROPE (JAPANESE LTD. EDITION CARDBOARD S
DTITLE=LEEVE)
DYEAR=1976
DGENRE=Hard Rock
TTITLE0=Burn (1996 Remaster)
TTITLE1=Mistreated (1996 Remaster)
TTITLE2=Lady Double Dealer (1996 Remaster)
TTITLE3=You Fool No One (1996 Remaster)
TTITLE4=Stormbringer (1996 Remaster)
EXTD=
EXTT0=
EXTT1=
EXTT2=
EXTT3=
EXTT4=
PLAYORDER=
